<svg width="40" height="72" viewBox="0 0 40 72" fill="none" xmlns="http://www.w3.org/2000/svg">
<path d="M16.0001 2.48273H13.3335V21.1035H16.0001V2.48273Z" fill="#5B5D6E"/>
<path d="M26.6669 2.48273H24.0002V21.1035H26.6669V2.48273Z" fill="#5B5D6E"/>
<path d="M6.66678 72.0001H4.00014C3.26382 72.0001 2.66675 71.4442 2.66675 70.7587V64.5518H8.00002V70.7587C8.00017 71.4442 7.40311 72.0001 6.66678 72.0001Z" fill="#464655"/>
<path d="M36 72.0001H33.3334C32.5971 72.0001 32 71.4442 32 70.7587V64.5518H37.3333V70.7587C37.3334 71.4442 36.7364 72.0001 36 72.0001Z" fill="#464655"/>
<path d="M37.3334 67.0345H2.66664C1.19383 67.0345 0 65.923 0 64.5518V26.0689C0 22.6411 2.98488 19.862 6.66667 19.862H33.3333C37.0151 19.862 40 22.6411 40 26.0689V64.5517C40 65.923 38.8062 67.0345 37.3334 67.0345Z" fill="#FF7F0F"/>
<path d="M32 38.4828H8.00013C6.52733 38.4828 5.3335 39.5943 5.3335 40.9655V55.862C5.3335 57.2333 6.52733 58.3448 8.00013 58.3448H32.0002C33.473 58.3448 34.6668 57.2333 34.6668 55.862V40.9655C34.6666 39.5943 33.4728 38.4828 32 38.4828Z" fill="#FFB800" fill-opacity="0.43"/>
<path d="M32 33.5173H8.00013C6.52733 33.5173 5.3335 32.4058 5.3335 31.0346V27.3104C5.3335 25.9392 6.52733 24.8277 8.00013 24.8277H32.0002C33.473 24.8277 34.6668 25.9392 34.6668 27.3104V31.0346C34.6666 32.4058 33.4728 33.5173 32 33.5173Z" fill="#FFB800" fill-opacity="0.43"/>
<path d="M26.6667 3.72417H13.3334C12.5971 3.72417 12 3.16828 12 2.48273V1.24144C12 0.555891 12.5971 0 13.3334 0H26.6667C27.4031 0 28.0001 0.555891 28.0001 1.24144V2.48288C28.0001 3.16828 27.4031 3.72417 26.6667 3.72417Z" fill="#707487"/>
<path d="M0 63.3104H40V64.5518C40 65.9231 38.8062 67.0346 37.3334 67.0346H2.66664C1.19383 67.0346 0 65.9231 0 64.5518V63.3104Z" fill="#5B5D6E"/>
</svg>
