<svg width="52" height="46" viewBox="0 0 52 46" fill="none" xmlns="http://www.w3.org/2000/svg">
<path d="M49.9059 31.882L10.959 40.877C9.49782 41.2344 8.03661 40.2218 7.7556 38.673L2.30416 12.4624C1.96696 10.9136 2.92237 9.36475 4.38358 9.0669L43.3305 0.0719C44.7917 -0.285517 46.2529 0.727164 46.5339 2.27597L51.9292 28.5461C52.2664 30.0354 51.3671 31.5842 49.9059 31.882Z" fill="#FF7F0F"/>
<path d="M7.69944 38.673L2.3042 12.4624L7.69944 38.673Z" fill="#383E56"/>
<path d="M47.2092 5.21337L2.94897 15.4305L4.04924 20.7854L48.3095 10.5683L47.2092 5.21337Z" fill="#5B5D6E"/>
<path opacity="0.15" d="M45.2975 16.2748V43.1407C45.2975 43.7959 45.0727 44.4512 44.6793 44.9277C44.2297 45.3447 43.6115 45.583 42.9932 45.583H3.09093C1.57352 45.583 0.393311 44.2725 0.393311 42.7237V15.8578C0.393311 15.2026 0.618112 14.5473 1.01152 14.0707C1.46112 13.6537 2.07932 13.4155 2.69753 13.4155H42.5436C44.0611 13.3559 45.2975 14.6664 45.2975 16.2748Z" fill="black"/>
<path opacity="0.15" d="M45.2976 16.2748V43.1407C45.2976 43.7959 45.0728 44.4512 44.6794 44.9278C44.1735 45.583 43.4429 46 42.5999 46H2.69762C1.18021 46 0 44.6895 0 43.1407V16.2748C0 15.3813 0.393403 14.6069 1.01161 14.0707C1.46121 13.6537 2.07942 13.4155 2.69762 13.4155H42.5437C44.0611 13.3559 45.2976 14.6664 45.2976 16.2748Z" fill="black"/>
<path d="M42.5437 46H2.69762C1.18021 46 0 44.6894 0 43.1406V16.2748C0 14.6664 1.23641 13.4154 2.69762 13.4154H42.5437C44.0611 13.4154 45.2414 14.726 45.2414 16.2748V43.1406C45.2414 44.6894 44.0611 46 42.5437 46Z" fill="#FF7F0F"/>
<path d="M12.9823 33.133H5.058C4.49599 33.133 4.04639 32.6564 4.04639 32.0607V27.2356C4.04639 26.6399 4.49599 26.1634 5.058 26.1634H12.9823C13.5443 26.1634 13.9939 26.6399 13.9939 27.2356V32.1203C13.9939 32.6564 13.5443 33.133 12.9823 33.133Z" fill="#E5CF89"/>
<path d="M39.7899 40.9366H30.4606C30.2358 40.9366 30.011 41.1153 30.011 41.4132V41.9493C30.011 42.1876 30.1796 42.4259 30.4606 42.4259H39.7899C40.0147 42.4259 40.2395 42.2471 40.2395 41.9493V41.4132C40.2395 41.1153 40.0147 40.9366 39.7899 40.9366Z" fill="#5B5D6E"/>
<path d="M28.2127 40.9366H14.1063C13.8815 40.9366 13.6567 41.1153 13.6567 41.4132V41.9493C13.6567 42.1876 13.8253 42.4259 14.1063 42.4259H28.2127C28.4375 42.4259 28.6623 42.2471 28.6623 41.9493V41.4132C28.6623 41.1153 28.4937 40.9366 28.2127 40.9366Z" fill="#5B5D6E"/>
</svg>
