<svg width="148" height="40" viewBox="0 0 148 40" fill="none" xmlns="http://www.w3.org/2000/svg">
<path d="M28.3333 6.66667H25V3.33333H15V6.66667H11.6667V3.33333C11.6667 1.5 13.1667 0 15 0H25C26.8333 0 28.3333 1.5 28.3333 3.33333V6.66667ZM40 13.3333V35C40 36.8333 38.5 38.3333 36.6667 38.3333H35C35 39.3333 34.3333 40 33.3333 40H30C29 40 28.3333 39.3333 28.3333 38.3333H11.6667C11.6667 39.3333 11 40 10 40H6.66667C5.66667 40 5 39.3333 5 38.3333H3.33333C1.5 38.3333 0 36.8333 0 35V13.3333C0 11.5 1.5 10 3.33333 10H36.6667C38.5 10 40 11.5 40 13.3333ZM6.66667 20C6.66667 21.8333 8.16667 23.3333 10 23.3333C11.8333 23.3333 13.3333 21.8333 13.3333 20C13.3333 18.1667 11.8333 16.6667 10 16.6667C8.16667 16.6667 6.66667 18.1667 6.66667 20ZM19 30L17.1667 25.3333L9.33333 28.3333L11.1667 33L19 30ZM29.5 25.8333L34.1667 21.1667L27.1667 14.1667L22.5 18.8333L29.5 25.8333Z" fill="url(#paint0_linear_2200_1314)"/>
<path d="M55.728 32V14.12H63.264C64.448 14.12 65.456 14.328 66.288 14.744C67.136 15.144 67.784 15.72 68.232 16.472C68.696 17.208 68.928 18.104 68.928 19.16C68.928 19.976 68.704 20.744 68.256 21.464C67.824 22.168 67.128 22.752 66.168 23.216V21.704C67.048 22.04 67.744 22.456 68.256 22.952C68.768 23.448 69.128 24 69.336 24.608C69.544 25.216 69.648 25.856 69.648 26.528C69.648 28.24 69.08 29.584 67.944 30.56C66.824 31.52 65.264 32 63.264 32H55.728ZM58.992 29.12H63.6C64.448 29.12 65.12 28.888 65.616 28.424C66.128 27.944 66.384 27.312 66.384 26.528C66.384 25.744 66.128 25.112 65.616 24.632C65.12 24.152 64.448 23.912 63.6 23.912H58.992V29.12ZM58.992 21.056H63.432C64.104 21.056 64.64 20.864 65.04 20.48C65.44 20.08 65.64 19.568 65.64 18.944C65.64 18.32 65.44 17.824 65.04 17.456C64.64 17.088 64.104 16.904 63.432 16.904H58.992V21.056ZM76.0178 32.288C75.1058 32.288 74.3138 32.136 73.6418 31.832C72.9698 31.528 72.4498 31.096 72.0818 30.536C71.7138 29.96 71.5298 29.296 71.5298 28.544C71.5298 27.824 71.6898 27.184 72.0098 26.624C72.3298 26.048 72.8258 25.568 73.4978 25.184C74.1698 24.8 75.0178 24.528 76.0418 24.368L80.3138 23.672V26.072L76.6418 26.696C76.0178 26.808 75.5538 27.008 75.2498 27.296C74.9458 27.584 74.7938 27.96 74.7938 28.424C74.7938 28.872 74.9618 29.232 75.2978 29.504C75.6498 29.76 76.0818 29.888 76.5938 29.888C77.2498 29.888 77.8258 29.752 78.3218 29.48C78.8338 29.192 79.2258 28.8 79.4978 28.304C79.7858 27.808 79.9298 27.264 79.9298 26.672V23.312C79.9298 22.752 79.7058 22.288 79.2578 21.92C78.8258 21.536 78.2498 21.344 77.5298 21.344C76.8578 21.344 76.2578 21.528 75.7298 21.896C75.2178 22.248 74.8418 22.72 74.6018 23.312L72.0338 22.064C72.2898 21.376 72.6898 20.784 73.2338 20.288C73.7938 19.776 74.4498 19.376 75.2018 19.088C75.9538 18.8 76.7698 18.656 77.6497 18.656C78.7218 18.656 79.6658 18.856 80.4818 19.256C81.2978 19.64 81.9298 20.184 82.3778 20.888C82.8418 21.576 83.0738 22.384 83.0738 23.312V32H80.0978V29.768L80.7698 29.72C80.4338 30.28 80.0338 30.752 79.5698 31.136C79.1058 31.504 78.5778 31.792 77.9858 32C77.3938 32.192 76.7378 32.288 76.0178 32.288ZM85.9796 32V18.944H88.9316V21.848L88.6916 21.416C88.9956 20.44 89.4676 19.76 90.1076 19.376C90.7636 18.992 91.5476 18.8 92.4596 18.8H93.2276V21.584H92.0996C91.2036 21.584 90.4836 21.864 89.9396 22.424C89.3956 22.968 89.1236 23.736 89.1236 24.728V32H85.9796ZM98.9162 32.288C98.0042 32.288 97.2122 32.136 96.5402 31.832C95.8682 31.528 95.3482 31.096 94.9802 30.536C94.6122 29.96 94.4282 29.296 94.4282 28.544C94.4282 27.824 94.5882 27.184 94.9082 26.624C95.2282 26.048 95.7242 25.568 96.3962 25.184C97.0682 24.8 97.9162 24.528 98.9402 24.368L103.212 23.672V26.072L99.5402 26.696C98.9162 26.808 98.4522 27.008 98.1482 27.296C97.8442 27.584 97.6922 27.96 97.6922 28.424C97.6922 28.872 97.8602 29.232 98.1962 29.504C98.5482 29.76 98.9802 29.888 99.4922 29.888C100.148 29.888 100.724 29.752 101.22 29.48C101.732 29.192 102.124 28.8 102.396 28.304C102.684 27.808 102.828 27.264 102.828 26.672V23.312C102.828 22.752 102.604 22.288 102.156 21.92C101.724 21.536 101.148 21.344 100.428 21.344C99.7562 21.344 99.1562 21.528 98.6282 21.896C98.1162 22.248 97.7402 22.72 97.5002 23.312L94.9322 22.064C95.1882 21.376 95.5882 20.784 96.1322 20.288C96.6922 19.776 97.3482 19.376 98.1002 19.088C98.8522 18.8 99.6682 18.656 100.548 18.656C101.62 18.656 102.564 18.856 103.38 19.256C104.196 19.64 104.828 20.184 105.276 20.888C105.74 21.576 105.972 22.384 105.972 23.312V32H102.996V29.768L103.668 29.72C103.332 30.28 102.932 30.752 102.468 31.136C102.004 31.504 101.476 31.792 100.884 32C100.292 32.192 99.6362 32.288 98.9162 32.288ZM108.878 32V18.944H111.83V21.968L111.494 21.464C111.734 20.52 112.214 19.816 112.934 19.352C113.654 18.888 114.502 18.656 115.478 18.656C116.55 18.656 117.494 18.936 118.31 19.496C119.126 20.056 119.654 20.792 119.894 21.704L119.006 21.776C119.406 20.736 120.006 19.96 120.806 19.448C121.606 18.92 122.526 18.656 123.566 18.656C124.494 18.656 125.318 18.864 126.038 19.28C126.774 19.696 127.35 20.28 127.766 21.032C128.182 21.768 128.39 22.624 128.39 23.6V32H125.246V24.344C125.246 23.768 125.142 23.272 124.934 22.856C124.726 22.44 124.438 22.12 124.07 21.896C123.702 21.656 123.254 21.536 122.726 21.536C122.23 21.536 121.79 21.656 121.406 21.896C121.022 22.12 120.726 22.44 120.518 22.856C120.31 23.272 120.206 23.768 120.206 24.344V32H117.062V24.344C117.062 23.768 116.958 23.272 116.75 22.856C116.542 22.44 116.246 22.12 115.862 21.896C115.494 21.656 115.054 21.536 114.542 21.536C114.046 21.536 113.606 21.656 113.222 21.896C112.838 22.12 112.542 22.44 112.334 22.856C112.126 23.272 112.022 23.768 112.022 24.344V32H108.878ZM131.05 32V18.944H134.194V32H131.05ZM131.05 17.48V14.12H134.194V17.48H131.05ZM135.969 32V29.456L143.553 20.672L144.033 21.752H136.305V18.944H146.817V21.512L139.377 30.296L138.897 29.216H146.865V32H135.969Z" fill="#1C1C1C"/>
<defs>
<linearGradient id="paint0_linear_2200_1314" x1="20" y1="0" x2="26.6048" y2="39.4464" gradientUnits="userSpaceOnUse">
<stop stop-color="#FFB800" stop-opacity="0.43"/>
<stop offset="1" stop-color="#FF7F0F"/>
</linearGradient>
</defs>
</svg>
